<svg xmlns="http://www.w3.org/2000/svg" xmlns:xlink="http://www.w3.org/1999/xlink" width="500" zoomAndPan="magnify" viewBox="0 0 375 374.999991" height="500" preserveAspectRatio="xMidYMid meet" version="1.0"><defs><clipPath id="446e13c3ce"><path d="M 0.105469 3.65625 L 185.570312 3.65625 L 185.570312 371.136719 L 0.105469 371.136719 Z M 0.105469 3.65625 " clip-rule="nonzero"/></clipPath><clipPath id="d6ec029d07"><path d="M 189.5625 3.65625 L 374.867188 3.65625 L 374.867188 371.136719 L 189.5625 371.136719 Z M 189.5625 3.65625 " clip-rule="nonzero"/></clipPath></defs><g clip-path="url(#446e13c3ce)"><path fill="#ffce47" d="M 73.664062 182.445312 C 8.300781 157.945312 24.234375 3.660156 24.234375 3.660156 C -55.015625 202.914062 86.328125 371.136719 86.328125 371.136719 C 192.40625 255.398438 185.183594 85.320312 185.183594 85.320312 C 185.183594 85.320312 139.023438 206.945312 73.664062 182.445312 " fill-opacity="1" fill-rule="nonzero"/></g><path fill="#ffce47" d="M 95.453125 98.601562 C 78.300781 98.601562 64.402344 112.496094 64.402344 129.632812 C 64.402344 146.773438 78.300781 160.667969 95.453125 160.667969 C 112.597656 160.667969 126.496094 146.773438 126.496094 129.632812 C 126.496094 112.496094 112.597656 98.601562 95.453125 98.601562 " fill-opacity="1" fill-rule="nonzero"/><path fill="#ffce47" d="M 47.472656 99.550781 C 46.65625 99.921875 46.089844 100.738281 46.089844 101.691406 C 46.089844 102.640625 46.65625 103.457031 47.472656 103.832031 L 47.472656 104.167969 L 43.242188 119.851562 L 53.648438 119.851562 L 49.421875 104.167969 L 49.421875 103.832031 C 50.234375 103.457031 50.804688 102.640625 50.804688 101.691406 C 50.804688 100.738281 50.234375 99.921875 49.421875 99.550781 L 49.421875 82.097656 L 64.890625 76.246094 L 53.523438 83.71875 L 62.59375 87.296875 L 62.59375 109.789062 C 69.332031 98.683594 81.539062 91.25 95.453125 91.25 C 109.128906 91.25 121.15625 98.441406 127.960938 109.238281 L 127.960938 87.296875 L 150.074219 78.570312 L 95.273438 57.765625 L 40.480469 78.570312 L 47.472656 81.328125 L 47.472656 99.550781 " fill-opacity="1" fill-rule="nonzero"/><g clip-path="url(#d6ec029d07)"><path fill="#004aad" d="M 301.308594 182.445312 C 366.671875 157.945312 350.738281 3.660156 350.738281 3.660156 C 429.988281 202.914062 288.644531 371.136719 288.644531 371.136719 C 182.566406 255.398438 189.785156 85.320312 189.785156 85.320312 C 189.785156 85.320312 235.949219 206.945312 301.308594 182.445312 " fill-opacity="1" fill-rule="nonzero"/></g><path fill="#004aad" d="M 279.519531 98.601562 C 296.667969 98.601562 310.570312 112.496094 310.570312 129.632812 C 310.570312 146.773438 296.667969 160.667969 279.519531 160.667969 C 262.375 160.667969 248.472656 146.773438 248.472656 129.632812 C 248.472656 112.496094 262.375 98.601562 279.519531 98.601562 " fill-opacity="1" fill-rule="nonzero"/><path fill="#004aad" d="M 327.5 99.550781 C 328.316406 99.921875 328.882812 100.738281 328.882812 101.691406 C 328.882812 102.640625 328.316406 103.457031 327.5 103.832031 L 327.5 104.167969 L 331.726562 119.851562 L 321.324219 119.851562 L 325.550781 104.167969 L 325.550781 103.832031 C 324.738281 103.457031 324.167969 102.640625 324.167969 101.691406 C 324.167969 100.738281 324.738281 99.921875 325.550781 99.550781 L 325.550781 82.097656 L 310.082031 76.246094 L 321.445312 83.71875 L 312.378906 87.296875 L 312.378906 109.789062 C 305.640625 98.683594 293.433594 91.25 279.519531 91.25 C 265.839844 91.25 253.816406 98.441406 247.011719 109.238281 L 247.011719 87.296875 L 224.898438 78.570312 L 279.699219 57.765625 L 334.492188 78.570312 L 327.5 81.328125 L 327.5 99.550781 " fill-opacity="1" fill-rule="nonzero"/></svg>