<svg xmlns="http://www.w3.org/2000/svg" xmlns:xlink="http://www.w3.org/1999/xlink" width="500" zoomAndPan="magnify" viewBox="0 0 375 374.999991" height="500" preserveAspectRatio="xMidYMid meet" version="1.0"><defs><g/><clipPath id="ab4c4c8d6a"><path d="M 66.285156 5.96875 L 186 5.96875 L 186 243.707031 L 66.285156 243.707031 Z M 66.285156 5.96875 " clip-rule="nonzero"/></clipPath><clipPath id="e25ea7a609"><path d="M 188.675781 5.96875 L 308.386719 5.96875 L 308.386719 243.707031 L 188.675781 243.707031 Z M 188.675781 5.96875 " clip-rule="nonzero"/></clipPath></defs><g clip-path="url(#ab4c4c8d6a)"><path fill="#ffce47" d="M 113.804688 121.636719 C 71.582031 105.785156 81.875 5.972656 81.875 5.972656 C 30.679688 134.878906 121.984375 243.707031 121.984375 243.707031 C 190.515625 168.832031 185.851562 58.800781 185.851562 58.800781 C 185.851562 58.800781 156.027344 137.484375 113.804688 121.636719 " fill-opacity="1" fill-rule="nonzero"/></g><path fill="#ffce47" d="M 127.878906 67.394531 C 116.800781 67.394531 107.824219 76.382812 107.824219 87.46875 C 107.824219 98.558594 116.800781 107.546875 127.878906 107.546875 C 138.957031 107.546875 147.9375 98.558594 147.9375 87.46875 C 147.9375 76.382812 138.957031 67.394531 127.878906 67.394531 " fill-opacity="1" fill-rule="nonzero"/><path fill="#ffce47" d="M 96.886719 68.007812 C 96.359375 68.246094 95.992188 68.773438 95.992188 69.390625 C 95.992188 70.007812 96.359375 70.535156 96.886719 70.777344 L 96.886719 70.996094 L 94.152344 81.140625 L 100.875 81.140625 L 98.144531 70.996094 L 98.144531 70.777344 C 98.671875 70.535156 99.039062 70.007812 99.039062 69.390625 C 99.039062 68.773438 98.671875 68.246094 98.144531 68.007812 L 98.144531 56.71875 L 108.136719 52.929688 L 100.796875 57.765625 L 106.652344 60.078125 L 106.652344 74.628906 C 111.007812 67.445312 118.894531 62.636719 127.878906 62.636719 C 136.71875 62.636719 144.484375 67.289062 148.882812 74.277344 L 148.882812 60.078125 L 163.167969 54.433594 L 127.765625 40.976562 L 92.367188 54.433594 L 96.886719 56.21875 L 96.886719 68.007812 " fill-opacity="1" fill-rule="nonzero"/><g clip-path="url(#e25ea7a609)"><path fill="#004aad" d="M 260.867188 121.636719 C 303.089844 105.785156 292.796875 5.972656 292.796875 5.972656 C 343.992188 134.878906 252.6875 243.707031 252.6875 243.707031 C 184.15625 168.832031 188.820312 58.800781 188.820312 58.800781 C 188.820312 58.800781 218.644531 137.484375 260.867188 121.636719 " fill-opacity="1" fill-rule="nonzero"/></g><path fill="#004aad" d="M 246.792969 67.394531 C 257.871094 67.394531 266.847656 76.382812 266.847656 87.46875 C 266.847656 98.558594 257.871094 107.546875 246.792969 107.546875 C 235.714844 107.546875 226.734375 98.558594 226.734375 87.46875 C 226.734375 76.382812 235.714844 67.394531 246.792969 67.394531 " fill-opacity="1" fill-rule="nonzero"/><path fill="#004aad" d="M 277.785156 68.007812 C 278.3125 68.246094 278.679688 68.773438 278.679688 69.390625 C 278.679688 70.007812 278.3125 70.535156 277.785156 70.777344 L 277.785156 70.996094 L 280.515625 81.140625 L 273.796875 81.140625 L 276.527344 70.996094 L 276.527344 70.777344 C 276 70.535156 275.632812 70.007812 275.632812 69.390625 C 275.632812 68.773438 276 68.246094 276.527344 68.007812 L 276.527344 56.71875 L 266.535156 52.929688 L 273.875 57.765625 L 268.019531 60.078125 L 268.019531 74.628906 C 263.664062 67.445312 255.777344 62.636719 246.792969 62.636719 C 237.953125 62.636719 230.1875 67.289062 225.789062 74.277344 L 225.789062 60.078125 L 211.503906 54.433594 L 246.90625 40.976562 L 282.304688 54.433594 L 277.785156 56.21875 L 277.785156 68.007812 " fill-opacity="1" fill-rule="nonzero"/><g fill="#004aad" fill-opacity="1"><g transform="translate(40.287079, 347.671523)"><g><path d="M 30.316406 1.628906 C 33.96875 1.628906 38.371094 1.230469 42.726562 0.0429688 C 47.082031 -1.144531 51.308594 -3.125 54.476562 -6.335938 C 57.601562 -9.503906 59.625 -13.90625 59.625 -19.890625 C 59.625 -22 59.359375 -23.894531 58.832031 -25.566406 C 57.777344 -28.867188 55.972656 -31.375 53.507812 -33.265625 C 51.042969 -35.160156 48.140625 -36.609375 45.101562 -37.710938 C 42.066406 -38.8125 38.503906 -39.953125 35.160156 -40.660156 C 31.8125 -41.363281 29.21875 -41.890625 27.765625 -42.507812 C 27.019531 -42.816406 26.664062 -43.210938 26.664062 -43.695312 C 26.664062 -44.441406 27.0625 -44.839844 27.632812 -45.015625 C 28.207031 -45.148438 29.042969 -45.101562 29.878906 -44.972656 C 31.417969 -44.75 33.882812 -44.136719 36.566406 -43.429688 C 39.207031 -42.683594 42.066406 -41.804688 44.398438 -40.96875 C 46.730469 -40.132812 48.578125 -39.382812 49.238281 -38.988281 L 56.675781 -58.699219 C 50.824219 -63.144531 42.332031 -65.652344 30.316406 -65.652344 C 20.152344 -65.652344 13.070312 -63.234375 8.492188 -59.226562 C 3.917969 -55.222656 1.847656 -49.636719 1.847656 -43.253906 C 1.847656 -38.019531 3.828125 -34.453125 6.734375 -31.8125 C 9.636719 -29.175781 13.421875 -27.503906 17.25 -26.226562 C 20.988281 -24.949219 24.863281 -24.113281 27.855469 -23.410156 C 29.304688 -23.058594 30.539062 -22.75 31.460938 -22.441406 C 32.386719 -22.132812 32.828125 -21.824219 32.828125 -21.472656 C 32.828125 -21.078125 32.648438 -20.726562 32.34375 -20.460938 C 31.992188 -20.152344 31.242188 -20.019531 30.054688 -20.019531 C 28.558594 -20.019531 27.0625 -20.199219 25.609375 -20.59375 C 22.660156 -21.339844 19.625 -22.484375 16.371094 -23.671875 C 14.742188 -24.246094 13.023438 -24.773438 11.222656 -25.214844 C 7.128906 -26.226562 4.136719 -25.167969 2.15625 -23.144531 C 0.175781 -21.121094 -0.792969 -18.085938 -0.835938 -15.136719 C -1.144531 -11.574219 1.890625 -7.390625 7.390625 -4.09375 C 12.847656 -0.75 20.8125 1.628906 30.316406 1.628906 Z M 30.316406 1.628906 "/></g></g></g><g fill="#004aad" fill-opacity="1"><g transform="translate(102.766896, 347.671523)"><g><path d="M 31.375 1.453125 L 33.355469 -43.695312 C 33.398438 -45.632812 33.132812 -47.039062 32.5625 -47.917969 C 31.332031 -49.679688 29.480469 -50.121094 27.679688 -50.121094 C 26.753906 -50.074219 26.050781 -50.164062 25.476562 -50.339844 C 24.816406 -50.515625 24.421875 -50.691406 24.332031 -50.910156 C 24.246094 -51.085938 24.203125 -51.21875 24.203125 -51.265625 C 24.203125 -51.308594 24.203125 -51.394531 24.246094 -51.527344 L 24.246094 -51.96875 C 24.246094 -52.847656 25.390625 -53.15625 26.886719 -53.550781 C 28.382812 -53.949219 30.230469 -54.386719 31.726562 -55.621094 C 33.222656 -56.851562 34.324219 -58.832031 34.324219 -62.21875 C 34.324219 -65.742188 32.957031 -68.203125 30.496094 -69.789062 C 27.984375 -71.375 24.378906 -72.078125 19.84375 -72.078125 C 9.988281 -72.078125 4.707031 -69.085938 4.707031 -62.21875 C 4.707031 -58.746094 5.984375 -56.808594 7.613281 -55.621094 C 9.242188 -54.386719 11.398438 -53.902344 13.023438 -53.550781 C 14.652344 -53.199219 15.929688 -52.890625 15.929688 -51.96875 L 15.929688 -51.660156 C 15.929688 -51.527344 15.886719 -51.394531 15.839844 -51.265625 C 15.664062 -50.867188 15.488281 -50.648438 15.269531 -50.558594 C 14.875 -50.339844 13.816406 -49.945312 12.585938 -49.945312 C 11.925781 -49.945312 11.308594 -49.945312 10.648438 -49.898438 C 9.328125 -49.8125 7.964844 -49.546875 6.953125 -48.710938 C 5.941406 -47.832031 5.28125 -46.378906 5.28125 -43.78125 L 5.367188 -0.394531 Z M 31.375 1.453125 "/></g></g></g><g fill="#004aad" fill-opacity="1"><g transform="translate(139.506788, 347.671523)"><g><path d="M 27.238281 2.289062 C 32.121094 2.289062 36.785156 1.9375 40.878906 1.054688 C 44.925781 0.175781 48.359375 -1.277344 50.824219 -3.433594 C 53.289062 -5.589844 54.695312 -8.492188 54.695312 -12.363281 C 54.695312 -14.609375 54.300781 -16.5 53.550781 -17.953125 C 51.96875 -20.859375 49.371094 -22.617188 46.203125 -23.542969 C 42.992188 -24.464844 39.558594 -25.125 36.433594 -25.785156 C 34.851562 -26.09375 33.441406 -26.578125 32.253906 -27.195312 C 30.671875 -28.03125 30.140625 -29.085938 30.140625 -30.363281 C 30.140625 -31.460938 30.933594 -31.59375 31.507812 -31.59375 C 31.8125 -31.59375 32.605469 -31.683594 33.398438 -31.242188 C 34.191406 -30.800781 34.984375 -29.835938 35.335938 -27.765625 L 55.839844 -29.746094 C 57.070312 -36.125 56.542969 -40.703125 54.828125 -43.914062 C 53.066406 -47.082031 50.164062 -48.929688 46.730469 -50.03125 C 43.300781 -51.085938 39.292969 -51.351562 35.421875 -51.351562 C 30.273438 -51.351562 24.949219 -50.382812 20.152344 -48.753906 C 15.355469 -47.128906 11.042969 -44.75 7.964844 -41.847656 C 4.882812 -38.941406 2.949219 -35.464844 2.949219 -31.769531 C 2.949219 -28.25 4.09375 -25.390625 5.894531 -22.96875 C 7.699219 -20.550781 10.164062 -18.613281 12.9375 -16.984375 C 16.324219 -15.050781 20.328125 -14.214844 23.496094 -13.683594 L 27.371094 -12.894531 C 28.382812 -12.628906 28.910156 -12.234375 28.910156 -11.75 C 28.910156 -11.527344 28.820312 -11.308594 28.601562 -11.089844 C 28.382812 -10.867188 27.898438 -10.738281 27.195312 -10.738281 C 24.554688 -10.738281 21.5625 -10.914062 18.65625 -11.660156 C 15.753906 -12.363281 12.980469 -13.730469 10.824219 -16.015625 C 9.769531 -15.886719 8.050781 -15.445312 6.554688 -14.566406 C 5.058594 -13.683594 3.742188 -12.453125 3.5625 -10.824219 C 3.167969 -7.4375 4.3125 -4.796875 6.46875 -2.859375 C 8.582031 -0.925781 11.75 0.351562 15.402344 1.144531 C 19.054688 1.9375 23.191406 2.289062 27.238281 2.289062 Z M 27.238281 2.289062 "/></g></g></g><g fill="#ffce47" fill-opacity="1"><g transform="translate(198.27826, 347.671523)"><g><path d="M 37.710938 2.023438 C 39.515625 2.023438 42.242188 1.847656 45.234375 1.363281 C 48.183594 0.878906 51.527344 0.175781 54.5625 -0.878906 C 57.601562 -1.890625 60.460938 -3.300781 62.527344 -5.058594 C 63.234375 -5.632812 63.980469 -6.335938 64.550781 -7.570312 C 65.082031 -8.800781 65.519531 -10.605469 65.652344 -13.378906 L 65.652344 -13.640625 C 65.652344 -13.773438 65.652344 -14.167969 65.652344 -14.875 L 65.652344 -17.601562 C 65.609375 -18.703125 65.609375 -20.019531 65.609375 -21.5625 L 65.609375 -27.28125 C 65.609375 -29.746094 65.035156 -31.285156 64.023438 -32.296875 C 62.96875 -33.308594 61.515625 -33.707031 59.625 -34.015625 C 56.324219 -34.5 53.550781 -34.675781 50.515625 -34.628906 C 47.480469 -34.585938 44.089844 -34.324219 39.824219 -33.925781 C 38.636719 -33.792969 37.359375 -33.441406 36.390625 -32.738281 C 35.421875 -31.992188 34.761719 -30.847656 35.070312 -29.21875 C 35.289062 -27.28125 35.90625 -26.050781 36.785156 -25.347656 C 37.621094 -24.597656 38.722656 -24.289062 39.824219 -24.289062 C 40.042969 -18.613281 40.21875 -15.09375 40.351562 -12.804688 C 39.777344 -12.671875 39.207031 -12.628906 38.546875 -12.585938 C 34.71875 -12.101562 32.648438 -13.730469 31.507812 -16.457031 C 30.363281 -19.183594 30.140625 -22.96875 30.140625 -26.972656 C 30.140625 -33.179688 30.582031 -37.929688 31.8125 -41.230469 C 33.046875 -44.53125 35.113281 -46.335938 38.28125 -46.6875 C 40.527344 -46.90625 42.464844 -47.082031 45.101562 -46.953125 C 47.699219 -46.773438 50.910156 -46.421875 55.796875 -45.675781 L 62.265625 -59.976562 C 57.820312 -62.484375 53.550781 -64.023438 49.285156 -64.816406 C 45.015625 -65.609375 40.703125 -65.785156 36.171875 -65.785156 C 23.320312 -65.785156 14.785156 -62.21875 9.503906 -56.015625 C 4.179688 -49.8125 2.066406 -40.878906 2.066406 -30.273438 C 2.066406 -23.542969 2.683594 -17.6875 4.621094 -12.9375 C 6.554688 -8.140625 9.8125 -4.445312 15.09375 -1.890625 C 20.375 0.660156 27.679688 2.023438 37.710938 2.023438 Z M 37.710938 2.023438 "/></g></g></g><g fill="#ffce47" fill-opacity="1"><g transform="translate(269.558051, 347.671523)"><g><path d="M 43.429688 0.351562 C 49.460938 0.484375 53.683594 -0.0429688 56.367188 -2.066406 C 59.050781 -4.09375 60.242188 -7.613281 60.242188 -13.730469 C 60.242188 -15.886719 59.535156 -17.910156 58.65625 -19.363281 C 57.730469 -20.769531 56.632812 -21.648438 55.753906 -21.515625 C 51.921875 -21.164062 47.917969 -20.945312 43.960938 -20.8125 C 40 -20.636719 36.171875 -20.550781 32.871094 -20.550781 C 32.828125 -21.5625 32.78125 -22.53125 32.78125 -23.542969 L 40.261719 -23.453125 C 45.058594 -23.410156 48.402344 -23.542969 50.515625 -24.863281 C 52.628906 -26.183594 53.550781 -28.734375 53.550781 -33.53125 C 53.550781 -35.246094 52.980469 -36.917969 52.277344 -38.195312 C 51.570312 -39.425781 50.734375 -40.261719 50.074219 -40.21875 C 48.976562 -40.085938 47.742188 -40 46.378906 -39.953125 C 43.652344 -39.777344 40.527344 -39.601562 37.316406 -39.558594 C 35.6875 -39.515625 34.101562 -39.515625 32.472656 -39.472656 C 32.429688 -40.21875 32.429688 -40.921875 32.429688 -41.628906 L 32.429688 -43.652344 L 45.015625 -43.429688 C 51.042969 -43.300781 55.222656 -43.828125 57.90625 -45.851562 C 60.59375 -47.875 61.78125 -51.394531 61.78125 -57.511719 C 61.78125 -59.625 61.078125 -61.691406 60.195312 -63.277344 C 59.316406 -64.816406 58.214844 -65.742188 57.378906 -65.695312 C 53.726562 -65.34375 49.328125 -65.035156 44.75 -64.816406 C 40.132812 -64.597656 35.378906 -64.464844 31.023438 -64.332031 C 25.960938 -64.199219 20.769531 -64.113281 15.53125 -64.070312 L 15.53125 -64.023438 C 14.300781 -63.980469 12.9375 -63.980469 11.441406 -63.980469 C 9.945312 -63.980469 8.535156 -63.980469 7.214844 -63.9375 C 5.675781 -63.894531 4.09375 -63.894531 2.550781 -63.847656 L 2.199219 -52.804688 L 5.808594 -52.9375 L 5.324219 -21.738281 C 5.28125 -16.5 5.542969 -12.363281 6.511719 -9.195312 C 7.480469 -5.984375 9.152344 -3.652344 11.878906 -2.199219 C 14.609375 -0.75 18.394531 -0.0429688 23.628906 -0.0429688 L 23.671875 -0.0429688 Z M 43.429688 0.351562 "/></g></g></g></svg>